<svg width="20" height="20" viewBox="0 0 48 48" fill="none" xmlns="http://www.w3.org/2000/svg">
<path id="Vector" d="M39.296 12.1031C40.2347 11.1645 40.2347 9.64262 39.296 8.70398C38.3574 7.76534 36.8355 7.76534 35.8969 8.70398L24 20.6009L12.1031 8.70398C11.1645 7.76534 9.64262 7.76534 8.70398 8.70398C7.76534 9.64262 7.76534 11.1645 8.70398 12.1031L20.6009 24L8.70398 35.8969C7.76534 36.8355 7.76534 38.3574 8.70398 39.296C9.64262 40.2347 11.1645 40.2347 12.1031 39.296L24 27.3991L35.8969 39.296C36.8355 40.2347 38.3574 40.2347 39.296 39.296C40.2347 38.3574 40.2347 36.8355 39.296 35.8969L27.3991 24L39.296 12.1031Z" fill="#999999"/>
</svg>
